<svg width="800" height="400" viewBox="0 0 800 400" xmlns="http://www.w3.org/2000/svg"><defs><pattern id="satori_pattern_id_1" x="0" y="0" width="0.125" height="0.25" patternUnits="objectBoundingBox"><radialGradient id="satori_radial_id_1"><stop offset="0" stop-color="lightgray"/><stop offset="0.02" stop-color="lightgray"/><stop offset="0" stop-color="transparent"/><stop offset="1" stop-color="transparent"/></radialGradient><mask id="satori_mask_id_1"><rect x="0" y="0" width="100" height="100" fill="#fff"/></mask><rect x="0" y="0" width="100" height="100" fill="transparent"/><circle cx="75" cy="75" width="100" height="100" r="106.06601717798213" fill="url(#satori_radial_id_1)" mask="url(#satori_mask_id_1)"/></pattern><pattern id="satori_pattern_id_0" x="0" y="0" width="0.125" height="0.25" patternUnits="objectBoundingBox"><radialGradient id="satori_radial_id_0"><stop offset="0" stop-color="lightgray"/><stop offset="0.02" stop-color="lightgray"/><stop offset="0" stop-color="transparent"/><stop offset="1" stop-color="transparent"/></radialGradient><mask id="satori_mask_id_0"><rect x="0" y="0" width="100" height="100" fill="#fff"/></mask><rect x="0" y="0" width="100" height="100" fill="transparent"/><circle cx="25" cy="25" width="100" height="100" r="106.06601717798213" fill="url(#satori_radial_id_0)" mask="url(#satori_mask_id_0)"/></pattern></defs><mask id="satori_om-id"><rect x="0" y="0" width="800" height="400" fill="#fff"/></mask><rect x="0" y="0" width="800" height="400" fill="white"/><rect x="0" y="0" width="800" height="400" fill="url(#satori_pattern_id_1)"/><rect x="0" y="0" width="800" height="400" fill="url(#satori_pattern_id_0)"/><mask id="satori_om-id-0"><rect x="265" y="142" width="271" height="116" fill="#fff"/></mask><mask id="satori_om-id-0-0"><rect x="265" y="142" width="271" height="116" fill="#fff"/></mask><path fill="black" d="M278.5 222.9L268.9 222.9L268.9 188.0L278.1 188.0L278.1 194.1L278.5 194.1Q279.6 191.1 282.1 189.3Q284.7 187.5 288.2 187.5L288.2 187.5Q291.8 187.5 294.3 189.3Q296.9 191.1 297.7 194.1L297.7 194.1L298.1 194.1Q299.1 191.1 301.9 189.3Q304.8 187.5 308.6 187.5L308.6 187.5Q313.5 187.5 316.5 190.6Q319.6 193.7 319.6 199.4L319.6 199.4L319.6 222.9L309.9 222.9L309.9 201.3Q309.9 198.4 308.4 196.9Q306.8 195.5 304.5 195.5L304.5 195.5Q301.9 195.5 300.4 197.2Q298.9 198.8 298.9 201.6L298.9 201.6L298.9 222.9L289.5 222.9L289.5 201.1Q289.5 198.5 288.1 197.0Q286.6 195.5 284.2 195.5L284.2 195.5Q282.6 195.5 281.3 196.3Q280.0 197.1 279.3 198.5Q278.5 200.0 278.5 201.9L278.5 201.9L278.5 222.9ZM336.9 222.9L327.2 222.9L327.2 188.0L336.9 188.0L336.9 222.9ZM332.1 183.5L332.1 183.5Q329.9 183.5 328.4 182.0Q326.9 180.6 326.9 178.6L326.9 178.6Q326.9 176.6 328.4 175.1Q329.9 173.7 332.1 173.7L332.1 173.7Q334.3 173.7 335.8 175.1Q337.3 176.6 337.3 178.6L337.3 178.6Q337.3 180.6 335.8 182.0Q334.3 183.5 332.1 183.5ZM354.3 202.7L354.3 202.7L354.3 222.9L344.6 222.9L344.6 188.0L353.9 188.0L353.9 194.1L354.3 194.1Q355.4 191.1 358.2 189.3Q360.9 187.5 364.8 187.5L364.8 187.5Q368.4 187.5 371.1 189.1Q373.8 190.7 375.3 193.6Q376.8 196.6 376.8 200.6L376.8 200.6L376.8 222.9L367.1 222.9L367.1 202.4Q367.2 199.2 365.5 197.4Q363.8 195.6 360.9 195.6L360.9 195.6Q359.0 195.6 357.5 196.4Q356.0 197.2 355.2 198.8Q354.3 200.4 354.3 202.7ZM394.1 222.9L384.4 222.9L384.4 188.0L394.1 188.0L394.1 222.9ZM389.3 183.5L389.3 183.5Q387.1 183.5 385.6 182.0Q384.1 180.6 384.1 178.6L384.1 178.6Q384.1 176.6 385.6 175.1Q387.1 173.7 389.3 173.7L389.3 173.7Q391.5 173.7 393.0 175.1Q394.5 176.6 394.5 178.6L394.5 178.6Q394.5 180.6 393.0 182.0Q391.5 183.5 389.3 183.5ZM411.6 222.9L402.0 222.9L402.0 176.3L411.7 176.3L411.7 193.8L412.0 193.8Q412.6 192.4 413.9 191.0Q415.1 189.5 417.0 188.5Q419.0 187.5 421.9 187.5L421.9 187.5Q425.8 187.5 429.0 189.5Q432.2 191.5 434.1 195.5Q436.1 199.5 436.1 205.5L436.1 205.5Q436.1 211.3 434.2 215.3Q432.3 219.3 429.1 221.4Q425.9 223.4 421.9 223.4L421.9 223.4Q419.1 223.4 417.1 222.5Q415.2 221.6 413.9 220.2Q412.7 218.7 412.0 217.3L412.0 217.3L411.6 217.3L411.6 222.9ZM411.5 205.4L411.5 205.4Q411.5 208.5 412.4 210.8Q413.2 213.2 414.9 214.5Q416.5 215.7 418.8 215.7L418.8 215.7Q421.2 215.7 422.8 214.4Q424.5 213.1 425.3 210.8Q426.2 208.5 426.2 205.4L426.2 205.4Q426.2 202.4 425.3 200.1Q424.5 197.8 422.9 196.5Q421.2 195.2 418.8 195.2L418.8 195.2Q416.5 195.2 414.9 196.5Q413.2 197.7 412.4 200.0Q411.5 202.3 411.5 205.4ZM442.5 176.3L452.2 176.3L452.2 222.9L442.5 222.9L442.5 176.3ZM475.7 223.6L475.7 223.6Q470.4 223.6 466.5 221.3Q462.7 219.0 460.6 215.0Q458.5 210.9 458.5 205.6L458.5 205.6Q458.5 200.1 460.6 196.1Q462.7 192.0 466.5 189.8Q470.4 187.5 475.7 187.5L475.7 187.5Q481.0 187.5 484.8 189.8Q488.7 192.0 490.8 196.1Q492.9 200.1 492.9 205.6L492.9 205.6Q492.9 210.9 490.8 215.0Q488.7 219.0 484.8 221.3Q481.0 223.6 475.7 223.6ZM475.7 216.1L475.7 216.1Q478.1 216.1 479.8 214.7Q481.4 213.3 482.2 210.9Q483.0 208.5 483.0 205.5L483.0 205.5Q483.0 202.4 482.2 200.1Q481.4 197.7 479.8 196.3Q478.1 194.9 475.7 194.9L475.7 194.9Q473.3 194.9 471.6 196.3Q470.0 197.7 469.2 200.1Q468.3 202.4 468.3 205.5L468.3 205.5Q468.3 208.5 469.2 210.9Q470.0 213.3 471.6 214.7Q473.3 216.1 475.7 216.1ZM514.9 236.7L514.9 236.7Q510.2 236.7 506.9 235.4Q503.5 234.1 501.5 231.9Q499.5 229.7 499.0 227.0L499.0 227.0L507.9 225.8Q508.3 226.8 509.2 227.7Q510.1 228.6 511.6 229.2Q513.0 229.7 515.1 229.7L515.1 229.7Q518.3 229.7 520.4 228.2Q522.4 226.7 522.4 223.1L522.4 223.1L522.4 216.7L522.0 216.7Q521.4 218.1 520.1 219.4Q518.8 220.7 516.8 221.6Q514.8 222.4 512.0 222.4L512.0 222.4Q508.1 222.4 504.9 220.5Q501.7 218.7 499.8 214.9Q497.9 211.1 497.9 205.3L497.9 205.3Q497.9 199.4 499.8 195.4Q501.8 191.5 505.0 189.5Q508.2 187.5 512.0 187.5L512.0 187.5Q515.0 187.5 516.9 188.5Q518.9 189.5 520.1 191.0Q521.3 192.4 522.0 193.8L522.0 193.8L522.4 193.8L522.4 188.0L532.0 188.0L532.0 223.2Q532.0 227.7 529.8 230.7Q527.6 233.7 523.8 235.2Q519.9 236.7 514.9 236.7ZM515.1 215.1L515.1 215.1Q517.5 215.1 519.1 213.9Q520.7 212.8 521.6 210.6Q522.5 208.4 522.5 205.3L522.5 205.3Q522.5 202.2 521.6 200.0Q520.7 197.7 519.1 196.5Q517.5 195.2 515.1 195.2L515.1 195.2Q512.7 195.2 511.1 196.5Q509.5 197.8 508.6 200.1Q507.8 202.3 507.8 205.3L507.8 205.3Q507.8 208.3 508.6 210.5Q509.5 212.7 511.1 213.9Q512.7 215.1 515.1 215.1Z "/></svg>