<?xml version="1.0" encoding="utf-8"?>
<!-- w  -->
<svg version="1.1" id="图层_1" xmlns="http://www.w3.org/2000/svg" xmlns:xlink="http://www.w3.org/1999/xlink" x="0px" y="0px"
	 viewBox="0 0 170 170" style="enable-background:new 0 0 170 170;" xml:space="preserve">
<style type="text/css">
	.st0{fill:#484949;}
	.st1{fill:#FFFFFF;}
	.st2{fill:#E5E6E6;}
	.st3{fill:#D1D873;}
	.st4{fill:#D9DADA;}
</style>
<g id="图层_1_1_">
	<polygon class="st0" points="22,20 23,20 24,20 25,20 26,20 27,20 28,20 29,20 30,20 30,21 30,22 30,23 30,24 30,25 30,26 30,27 
		30,28 30,29 30,30 31,30 32,30 33,30 34,30 35,30 36,30 37,30 38,30 39,30 40,30 40,29 40,28 40,27 40,26 40,25 40,24 40,23 40,22 
		40,21 40,20 40,19 40,18 40,17 40,16 40,15 40,14 40,13 40,12 40,11 40,10 39,10 38,10 37,10 36,10 35,10 34,10 33,10 32,10 31,10 
		30,10 29,10 28,10 27,10 26,10 25,10 24,10 23,10 22,10 21,10 20,10 20,11 20,12 20,13 20,14 20,15 20,16 20,17 20,18 20,19 20,20 
		21,20 	"/>
	<polygon class="st0" points="82,20 83,20 84,20 85,20 86,20 87,20 88,20 89,20 90,20 90,21 90,22 90,23 90,24 90,25 90,26 90,27 
		90,28 90,29 90,30 90,31 90,32 90,33 90,34 90,35 90,36 90,37 90,38 90,39 90,40 90,41 90,42 90,43 90,44 90,45 90,46 90,47 90,48 
		90,49 90,50 91,50 92,50 93,50 94,50 95,50 96,50 97,50 98,50 99,50 100,50 100,49 100,48 100,47 100,46 100,45 100,44 100,43 
		100,42 100,41 100,40 100,39 100,38 100,37 100,36 100,35 100,34 100,33 100,32 100,31 100,30 100,29 100,28 100,27 100,26 100,25 
		100,24 100,23 100,22 100,21 100,20 100,19 100,18 100,17 100,16 100,15 100,14 100,13 100,12 100,11 100,10 99,10 98,10 97,10 
		96,10 95,10 94,10 93,10 92,10 91,10 90,10 89,10 88,10 87,10 86,10 85,10 84,10 83,10 82,10 81,10 80,10 80,11 80,12 80,13 80,14 
		80,15 80,16 80,17 80,18 80,19 80,20 81,20 	"/>
	<polygon class="st1" points="20,22 20,23 20,24 20,25 20,26 20,27 20,28 20,29 20,30 21,30 22,30 23,30 24,30 25,30 26,30 27,30 
		28,30 29,30 30,30 30,29 30,28 30,27 30,26 30,25 30,24 30,23 30,22 30,21 30,20 29,20 28,20 27,20 26,20 25,20 24,20 23,20 22,20 
		21,20 20,20 20,21 	"/>
	<polygon class="st1" points="80,22 80,23 80,24 80,25 80,26 80,27 80,28 80,29 80,30 81,30 82,30 83,30 84,30 85,30 86,30 87,30 
		88,30 89,30 90,30 90,29 90,28 90,27 90,26 90,25 90,24 90,23 90,22 90,21 90,20 89,20 88,20 87,20 86,20 85,20 84,20 83,20 82,20 
		81,20 80,20 80,21 	"/>
	<polygon class="st0" points="72,30 73,30 74,30 75,30 76,30 77,30 78,30 79,30 80,30 80,29 80,28 80,27 80,26 80,25 80,24 80,23 
		80,22 80,21 80,20 79,20 78,20 77,20 76,20 75,20 74,20 73,20 72,20 71,20 70,20 70,21 70,22 70,23 70,24 70,25 70,26 70,27 70,28 
		70,29 70,30 71,30 	"/>
	<path class="st1" d="M38,30h-8v10H20v50h10v10h10v20h10v30h10v-20h10v-10h20v10H70v20h50v-20h-20v-20H90v-10H80V90h10V80h10V50H90
		V40H80V30H70v10H40V30H38z M30,79V60h10v20H30V79z M70,80H60V60h10V80z"/>
	<polygon class="st0" points="40,32 40,33 40,34 40,35 40,36 40,37 40,38 40,39 40,40 41,40 42,40 43,40 44,40 45,40 46,40 47,40 
		48,40 49,40 50,40 51,40 52,40 53,40 54,40 55,40 56,40 57,40 58,40 59,40 60,40 61,40 62,40 63,40 64,40 65,40 66,40 67,40 68,40 
		69,40 70,40 70,39 70,38 70,37 70,36 70,35 70,34 70,33 70,32 70,31 70,30 69,30 68,30 67,30 66,30 65,30 64,30 63,30 62,30 61,30 
		60,30 59,30 58,30 57,30 56,30 55,30 54,30 53,30 52,30 51,30 50,30 49,30 48,30 47,30 46,30 45,30 44,30 43,30 42,30 41,30 40,30 
		40,31 	"/>
	<polygon class="st2" points="90,38 90,37 90,36 90,35 90,34 90,33 90,32 90,31 90,30 89,30 88,30 87,30 86,30 85,30 84,30 83,30 
		82,30 81,30 80,30 80,31 80,32 80,33 80,34 80,35 80,36 80,37 80,38 80,39 80,40 81,40 82,40 83,40 84,40 85,40 86,40 87,40 88,40 
		89,40 90,40 90,39 	"/>
	<polygon class="st2" points="22,40 23,40 24,40 25,40 26,40 27,40 28,40 29,40 30,40 30,39 30,38 30,37 30,36 30,35 30,34 30,33 
		30,32 30,31 30,30 29,30 28,30 27,30 26,30 25,30 24,30 23,30 22,30 21,30 20,30 20,31 20,32 20,33 20,34 20,35 20,36 20,37 20,38 
		20,39 20,40 21,40 	"/>
	<polygon class="st0" points="142,40 143,40 144,40 145,40 146,40 147,40 148,40 149,40 150,40 151,40 152,40 153,40 154,40 155,40 
		156,40 157,40 158,40 159,40 160,40 160,39 160,38 160,37 160,36 160,35 160,34 160,33 160,32 160,31 160,30 159,30 158,30 157,30 
		156,30 155,30 154,30 153,30 152,30 151,30 150,30 149,30 148,30 147,30 146,30 145,30 144,30 143,30 142,30 141,30 140,30 140,31 
		140,32 140,33 140,34 140,35 140,36 140,37 140,38 140,39 140,40 141,40 	"/>
	<polygon class="st0" points="169,40 168,40 167,40 166,40 165,40 164,40 163,40 162,40 161,40 160,40 160,41 160,42 160,43 160,44 
		160,45 160,46 160,47 160,48 160,49 160,50 159,50 158,50 157,50 156,50 155,50 154,50 153,50 152,50 151,50 150,50 150,51 150,52 
		150,53 150,54 150,55 150,56 150,57 150,58 150,59 150,60 150,61 150,62 150,63 150,64 150,65 150,66 150,67 150,68 150,69 150,70 
		151,70 152,70 153,70 154,70 155,70 156,70 157,70 158,70 159,70 160,70 160,69 160,68 160,67 160,66 160,65 160,64 160,63 160,62 
		160,61 160,60 161,60 162,60 163,60 164,60 165,60 166,60 167,60 168,60 169,60 170,60 170,59 170,58 170,57 170,56 170,55 170,54 
		170,53 170,52 170,51 170,50 170,49 170,48 170,47 170,46 170,45 170,44 170,43 170,42 170,41 170,40 	"/>
	<polygon class="st0" points="12,50 13,50 14,50 15,50 16,50 17,50 18,50 19,50 20,50 20,49 20,48 20,47 20,46 20,45 20,44 20,43 
		20,42 20,41 20,40 20,39 20,38 20,37 20,36 20,35 20,34 20,33 20,32 20,31 20,30 20,29 20,28 20,27 20,26 20,25 20,24 20,23 20,22 
		20,21 20,20 19,20 18,20 17,20 16,20 15,20 14,20 13,20 12,20 11,20 10,20 10,21 10,22 10,23 10,24 10,25 10,26 10,27 10,28 10,29 
		10,30 10,31 10,32 10,33 10,34 10,35 10,36 10,37 10,38 10,39 10,40 10,41 10,42 10,43 10,44 10,45 10,46 10,47 10,48 10,49 10,50 
		11,50 	"/>
	<polygon class="st0" points="100,52 100,53 100,54 100,55 100,56 100,57 100,58 100,59 100,60 100,61 100,62 100,63 100,64 100,65 
		100,66 100,67 100,68 100,69 100,70 100,71 100,72 100,73 100,74 100,75 100,76 100,77 100,78 100,79 100,80 101,80 102,80 103,80 
		104,80 105,80 106,80 107,80 108,80 109,80 110,80 110,79 110,78 110,77 110,76 110,75 110,74 110,73 110,72 110,71 110,70 110,69 
		110,68 110,67 110,66 110,65 110,64 110,63 110,62 110,61 110,60 110,59 110,58 110,57 110,56 110,55 110,54 110,53 110,52 110,51 
		110,50 109,50 108,50 107,50 106,50 105,50 104,50 103,50 102,50 101,50 100,50 100,51 	"/>
	<polygon class="st0" points="132,60 133,60 134,60 135,60 136,60 137,60 138,60 139,60 140,60 140,59 140,58 140,57 140,56 140,55 
		140,54 140,53 140,52 140,51 140,50 140,49 140,48 140,47 140,46 140,45 140,44 140,43 140,42 140,41 140,40 139,40 138,40 137,40 
		136,40 135,40 134,40 133,40 132,40 131,40 130,40 130,41 130,42 130,43 130,44 130,45 130,46 130,47 130,48 130,49 130,50 130,51 
		130,52 130,53 130,54 130,55 130,56 130,57 130,58 130,59 130,60 131,60 	"/>
	<polygon class="st1" points="150,68 150,67 150,66 150,65 150,64 150,63 150,62 150,61 150,60 150,59 150,58 150,57 150,56 150,55 
		150,54 150,53 150,52 150,51 150,50 151,50 152,50 153,50 154,50 155,50 156,50 157,50 158,50 159,50 160,50 160,49 160,48 160,47 
		160,46 160,45 160,44 160,43 160,42 160,41 160,40 159,40 158,40 157,40 156,40 155,40 154,40 153,40 152,40 151,40 150,40 149,40 
		148,40 147,40 146,40 145,40 144,40 143,40 142,40 141,40 140,40 140,41 140,42 140,43 140,44 140,45 140,46 140,47 140,48 140,49 
		140,50 140,51 140,52 140,53 140,54 140,55 140,56 140,57 140,58 140,59 140,60 139,60 138,60 137,60 136,60 135,60 134,60 133,60 
		132,60 131,60 130,60 130,61 130,62 130,63 130,64 130,65 130,66 130,67 130,68 130,69 130,70 131,70 132,70 133,70 134,70 135,70 
		136,70 137,70 138,70 139,70 140,70 141,70 142,70 143,70 144,70 145,70 146,70 147,70 148,70 149,70 150,70 150,69 	"/>
	<polygon class="st0" points="148,70 147,70 146,70 145,70 144,70 143,70 142,70 141,70 140,70 140,71 140,72 140,73 140,74 140,75 
		140,76 140,77 140,78 140,79 140,80 140,81 140,82 140,83 140,84 140,85 140,86 140,87 140,88 140,89 140,90 141,90 142,90 143,90 
		144,90 145,90 146,90 147,90 148,90 149,90 150,90 150,89 150,88 150,87 150,86 150,85 150,84 150,83 150,82 150,81 150,80 150,79 
		150,78 150,77 150,76 150,75 150,74 150,73 150,72 150,71 150,70 149,70 	"/>
	<polygon class="st3" points="70,77 70,76 70,75 70,74 70,73 70,72 70,71 70,70 70,69 70,68 70,67 70,66 70,65 70,64 70,63 70,62 
		70,61 70,60 69,60 68,60 67,60 66,60 65,60 64,60 63,60 62,60 61,60 60,60 60,61 60,62 60,63 60,64 60,65 60,66 60,67 60,68 60,69 
		60,70 60,71 60,72 60,73 60,74 60,75 60,76 60,77 60,78 60,79 60,80 61,80 62,80 63,80 64,80 65,80 66,80 67,80 68,80 69,80 70,80 
		70,79 70,78 	"/>
	<polygon class="st3" points="32,80 33,80 34,80 35,80 36,80 37,80 38,80 39,80 40,80 40,79 40,78 40,77 40,76 40,75 40,74 40,73 
		40,72 40,71 40,70 40,69 40,68 40,67 40,66 40,65 40,64 40,63 40,62 40,61 40,60 39,60 38,60 37,60 36,60 35,60 34,60 33,60 32,60 
		31,60 30,60 30,61 30,62 30,63 30,64 30,65 30,66 30,67 30,68 30,69 30,70 30,71 30,72 30,73 30,74 30,75 30,76 30,77 30,78 30,79 
		30,80 31,80 	"/>
	<polygon class="st0" points="98,80 97,80 96,80 95,80 94,80 93,80 92,80 91,80 90,80 90,81 90,82 90,83 90,84 90,85 90,86 90,87 
		90,88 90,89 90,90 89,90 88,90 87,90 86,90 85,90 84,90 83,90 82,90 81,90 80,90 80,91 80,92 80,93 80,94 80,95 80,96 80,97 80,98 
		80,99 80,100 81,100 82,100 83,100 84,100 85,100 86,100 87,100 88,100 89,100 90,100 91,100 92,100 93,100 94,100 95,100 96,100 
		97,100 98,100 99,100 100,100 100,99 100,98 100,97 100,96 100,95 100,94 100,93 100,92 100,91 100,90 100,89 100,88 100,87 
		100,86 100,85 100,84 100,83 100,82 100,81 100,80 99,80 	"/>
	<polygon class="st0" points="10,88 10,87 10,86 10,85 10,84 10,83 10,82 10,81 10,80 10,79 10,78 10,77 10,76 10,75 10,74 10,73 
		10,72 10,71 10,70 10,69 10,68 10,67 10,66 10,65 10,64 10,63 10,62 10,61 10,60 10,59 10,58 10,57 10,56 10,55 10,54 10,53 10,52 
		10,51 10,50 9,50 8,50 7,50 6,50 5,50 4,50 3,50 2,50 1,50 0,50 0,51 0,52 0,53 0,54 0,55 0,56 0,57 0,58 0,59 0,60 0,61 0,62 
		0,63 0,64 0,65 0,66 0,67 0,68 0,69 0,70 0,71 0,72 0,73 0,74 0,75 0,76 0,77 0,78 0,79 0,80 0,81 0,82 0,83 0,84 0,85 0,86 0,87 
		0,88 0,89 0,90 1,90 2,90 3,90 4,90 5,90 6,90 7,90 8,90 9,90 10,90 10,89 	"/>
	<polygon class="st0" points="130,88 130,87 130,86 130,85 130,84 130,83 130,82 130,81 130,80 130,79 130,78 130,77 130,76 130,75 
		130,74 130,73 130,72 130,71 130,70 130,69 130,68 130,67 130,66 130,65 130,64 130,63 130,62 130,61 130,60 129,60 128,60 127,60 
		126,60 125,60 124,60 123,60 122,60 121,60 120,60 120,61 120,62 120,63 120,64 120,65 120,66 120,67 120,68 120,69 120,70 120,71 
		120,72 120,73 120,74 120,75 120,76 120,77 120,78 120,79 120,80 120,81 120,82 120,83 120,84 120,85 120,86 120,87 120,88 120,89 
		120,90 121,90 122,90 123,90 124,90 125,90 126,90 127,90 128,90 129,90 130,90 130,89 	"/>
	<polygon class="st2" points="12,90 13,90 14,90 15,90 16,90 17,90 18,90 19,90 20,90 20,89 20,88 20,87 20,86 20,85 20,84 20,83 
		20,82 20,81 20,80 20,79 20,78 20,77 20,76 20,75 20,74 20,73 20,72 20,71 20,70 20,69 20,68 20,67 20,66 20,65 20,64 20,63 20,62 
		20,61 20,60 20,59 20,58 20,57 20,56 20,55 20,54 20,53 20,52 20,51 20,50 19,50 18,50 17,50 16,50 15,50 14,50 13,50 12,50 11,50 
		10,50 10,51 10,52 10,53 10,54 10,55 10,56 10,57 10,58 10,59 10,60 10,61 10,62 10,63 10,64 10,65 10,66 10,67 10,68 10,69 10,70 
		10,71 10,72 10,73 10,74 10,75 10,76 10,77 10,78 10,79 10,80 10,81 10,82 10,83 10,84 10,85 10,86 10,87 10,88 10,89 10,90 11,90 
			"/>
	<polygon class="st2" points="132,90 133,90 134,90 135,90 136,90 137,90 138,90 139,90 140,90 140,89 140,88 140,87 140,86 140,85 
		140,84 140,83 140,82 140,81 140,80 140,79 140,78 140,77 140,76 140,75 140,74 140,73 140,72 140,71 140,70 139,70 138,70 137,70 
		136,70 135,70 134,70 133,70 132,70 131,70 130,70 130,71 130,72 130,73 130,74 130,75 130,76 130,77 130,78 130,79 130,80 130,81 
		130,82 130,83 130,84 130,85 130,86 130,87 130,88 130,89 130,90 131,90 	"/>
	<polygon class="st1" points="148,90 147,90 146,90 145,90 144,90 143,90 142,90 141,90 140,90 140,91 140,92 140,93 140,94 140,95 
		140,96 140,97 140,98 140,99 140,100 140,101 140,102 140,103 140,104 140,105 140,106 140,107 140,108 140,109 140,110 140,111 
		140,112 140,113 140,114 140,115 140,116 140,117 140,118 140,119 140,120 141,120 142,120 143,120 144,120 145,120 146,120 
		147,120 148,120 149,120 150,120 150,119 150,118 150,117 150,116 150,115 150,114 150,113 150,112 150,111 150,110 150,109 
		150,108 150,107 150,106 150,105 150,104 150,103 150,102 150,101 150,100 150,99 150,98 150,97 150,96 150,95 150,94 150,93 
		150,92 150,91 150,90 149,90 	"/>
	<polygon class="st0" points="150,92 150,93 150,94 150,95 150,96 150,97 150,98 150,99 150,100 150,101 150,102 150,103 150,104 
		150,105 150,106 150,107 150,108 150,109 150,110 150,111 150,112 150,113 150,114 150,115 150,116 150,117 150,118 150,119 
		150,120 150,121 150,122 150,123 150,124 150,125 150,126 150,127 150,128 150,129 150,130 151,130 152,130 153,130 154,130 
		155,130 156,130 157,130 158,130 159,130 160,130 160,129 160,128 160,127 160,126 160,125 160,124 160,123 160,122 160,121 
		160,120 160,119 160,118 160,117 160,116 160,115 160,114 160,113 160,112 160,111 160,110 160,109 160,108 160,107 160,106 
		160,105 160,104 160,103 160,102 160,101 160,100 160,99 160,98 160,97 160,96 160,95 160,94 160,93 160,92 160,91 160,90 159,90 
		158,90 157,90 156,90 155,90 154,90 153,90 152,90 151,90 150,90 150,91 	"/>
	<polygon class="st0" points="20,98 20,97 20,96 20,95 20,94 20,93 20,92 20,91 20,90 19,90 18,90 17,90 16,90 15,90 14,90 13,90 
		12,90 11,90 10,90 10,91 10,92 10,93 10,94 10,95 10,96 10,97 10,98 10,99 10,100 11,100 12,100 13,100 14,100 15,100 16,100 
		17,100 18,100 19,100 20,100 20,99 	"/>
	<polygon class="st2" points="22,100 23,100 24,100 25,100 26,100 27,100 28,100 29,100 30,100 30,99 30,98 30,97 30,96 30,95 
		30,94 30,93 30,92 30,91 30,90 29,90 28,90 27,90 26,90 25,90 24,90 23,90 22,90 21,90 20,90 20,91 20,92 20,93 20,94 20,95 20,96 
		20,97 20,98 20,99 20,100 21,100 	"/>
	<polygon class="st4" points="98,100 97,100 96,100 95,100 94,100 93,100 92,100 91,100 90,100 90,101 90,102 90,103 90,104 90,105 
		90,106 90,107 90,108 90,109 90,110 91,110 92,110 93,110 94,110 95,110 96,110 97,110 98,110 99,110 100,110 100,109 100,108 
		100,107 100,106 100,105 100,104 100,103 100,102 100,101 100,100 99,100 	"/>
	<polygon class="st0" points="100,102 100,103 100,104 100,105 100,106 100,107 100,108 100,109 100,110 101,110 102,110 103,110 
		104,110 105,110 106,110 107,110 108,110 109,110 110,110 110,109 110,108 110,107 110,106 110,105 110,104 110,103 110,102 
		110,101 110,100 109,100 108,100 107,100 106,100 105,100 104,100 103,100 102,100 101,100 100,100 100,101 	"/>
	<polygon class="st4" points="108,110 107,110 106,110 105,110 104,110 103,110 102,110 101,110 100,110 100,111 100,112 100,113 
		100,114 100,115 100,116 100,117 100,118 100,119 100,120 101,120 102,120 103,120 104,120 105,120 106,120 107,120 108,120 
		109,120 110,120 110,119 110,118 110,117 110,116 110,115 110,114 110,113 110,112 110,111 110,110 109,110 	"/>
	<polygon class="st0" points="110,112 110,113 110,114 110,115 110,116 110,117 110,118 110,119 110,120 111,120 112,120 113,120 
		114,120 115,120 116,120 117,120 118,120 119,120 120,120 120,119 120,118 120,117 120,116 120,115 120,114 120,113 120,112 
		120,111 120,110 119,110 118,110 117,110 116,110 115,110 114,110 113,110 112,110 111,110 110,110 110,111 	"/>
	<polygon class="st2" points="40,118 40,117 40,116 40,115 40,114 40,113 40,112 40,111 40,110 40,109 40,108 40,107 40,106 40,105 
		40,104 40,103 40,102 40,101 40,100 39,100 38,100 37,100 36,100 35,100 34,100 33,100 32,100 31,100 30,100 30,101 30,102 30,103 
		30,104 30,105 30,106 30,107 30,108 30,109 30,110 30,111 30,112 30,113 30,114 30,115 30,116 30,117 30,118 30,119 30,120 30,121 
		30,122 30,123 30,124 30,125 30,126 30,127 30,128 30,129 30,130 30,131 30,132 30,133 30,134 30,135 30,136 30,137 30,138 30,139 
		30,140 31,140 32,140 33,140 34,140 35,140 36,140 37,140 38,140 39,140 40,140 40,139 40,138 40,137 40,136 40,135 40,134 40,133 
		40,132 40,131 40,130 40,129 40,128 40,127 40,126 40,125 40,124 40,123 40,122 40,121 40,120 40,119 	"/>
	<polygon class="st0" points="132,120 133,120 134,120 135,120 136,120 137,120 138,120 139,120 140,120 140,119 140,118 140,117 
		140,116 140,115 140,114 140,113 140,112 140,111 140,110 140,109 140,108 140,107 140,106 140,105 140,104 140,103 140,102 
		140,101 140,100 140,99 140,98 140,97 140,96 140,95 140,94 140,93 140,92 140,91 140,90 139,90 138,90 137,90 136,90 135,90 
		134,90 133,90 132,90 131,90 130,90 130,91 130,92 130,93 130,94 130,95 130,96 130,97 130,98 130,99 130,100 130,101 130,102 
		130,103 130,104 130,105 130,106 130,107 130,108 130,109 130,110 130,111 130,112 130,113 130,114 130,115 130,116 130,117 
		130,118 130,119 130,120 131,120 	"/>
	<polygon class="st4" points="118,120 117,120 116,120 115,120 114,120 113,120 112,120 111,120 110,120 110,121 110,122 110,123 
		110,124 110,125 110,126 110,127 110,128 110,129 110,130 111,130 112,130 113,130 114,130 115,130 116,130 117,130 118,130 
		119,130 120,130 120,129 120,128 120,127 120,126 120,125 120,124 120,123 120,122 120,121 120,120 119,120 	"/>
	<polygon class="st0" points="120,122 120,123 120,124 120,125 120,126 120,127 120,128 120,129 120,130 121,130 122,130 123,130 
		124,130 125,130 126,130 127,130 128,130 129,130 130,130 130,129 130,128 130,127 130,126 130,125 130,124 130,123 130,122 
		130,121 130,120 129,120 128,120 127,120 126,120 125,120 124,120 123,120 122,120 121,120 120,120 120,121 	"/>
	<polygon class="st4" points="130,122 130,123 130,124 130,125 130,126 130,127 130,128 130,129 130,130 131,130 132,130 133,130 
		134,130 135,130 136,130 137,130 138,130 139,130 140,130 140,129 140,128 140,127 140,126 140,125 140,124 140,123 140,122 
		140,121 140,120 139,120 138,120 137,120 136,120 135,120 134,120 133,120 132,120 131,120 130,120 130,121 	"/>
	<polygon class="st2" points="110,128 110,127 110,126 110,125 110,124 110,123 110,122 110,121 110,120 109,120 108,120 107,120 
		106,120 105,120 104,120 103,120 102,120 101,120 100,120 100,121 100,122 100,123 100,124 100,125 100,126 100,127 100,128 
		100,129 100,130 101,130 102,130 103,130 104,130 105,130 106,130 107,130 108,130 109,130 110,130 110,129 	"/>
	<polygon class="st2" points="150,128 150,127 150,126 150,125 150,124 150,123 150,122 150,121 150,120 149,120 148,120 147,120 
		146,120 145,120 144,120 143,120 142,120 141,120 140,120 140,121 140,122 140,123 140,124 140,125 140,126 140,127 140,128 
		140,129 140,130 141,130 142,130 143,130 144,130 145,130 146,130 147,130 148,130 149,130 150,130 150,129 	"/>
	<polygon class="st0" points="72,130 73,130 74,130 75,130 76,130 77,130 78,130 79,130 80,130 81,130 82,130 83,130 84,130 85,130 
		86,130 87,130 88,130 89,130 90,130 90,129 90,128 90,127 90,126 90,125 90,124 90,123 90,122 90,121 90,120 89,120 88,120 87,120 
		86,120 85,120 84,120 83,120 82,120 81,120 80,120 79,120 78,120 77,120 76,120 75,120 74,120 73,120 72,120 71,120 70,120 70,121 
		70,122 70,123 70,124 70,125 70,126 70,127 70,128 70,129 70,130 71,130 	"/>
	<polygon class="st0" points="148,130 147,130 146,130 145,130 144,130 143,130 142,130 141,130 140,130 140,131 140,132 140,133 
		140,134 140,135 140,136 140,137 140,138 140,139 140,140 140,141 140,142 140,143 140,144 140,145 140,146 140,147 140,148 
		140,149 140,150 141,150 142,150 143,150 144,150 145,150 146,150 147,150 148,150 149,150 150,150 150,149 150,148 150,147 
		150,146 150,145 150,144 150,143 150,142 150,141 150,140 150,139 150,138 150,137 150,136 150,135 150,134 150,133 150,132 
		150,131 150,130 149,130 	"/>
	<polygon class="st1" points="38,140 37,140 36,140 35,140 34,140 33,140 32,140 31,140 30,140 30,141 30,142 30,143 30,144 30,145 
		30,146 30,147 30,148 30,149 30,150 31,150 32,150 33,150 34,150 35,150 36,150 37,150 38,150 39,150 40,150 40,149 40,148 40,147 
		40,146 40,145 40,144 40,143 40,142 40,141 40,140 39,140 	"/>
	<polygon class="st2" points="140,148 140,147 140,146 140,145 140,144 140,143 140,142 140,141 140,140 140,139 140,138 140,137 
		140,136 140,135 140,134 140,133 140,132 140,131 140,130 139,130 138,130 137,130 136,130 135,130 134,130 133,130 132,130 
		131,130 130,130 129,130 128,130 127,130 126,130 125,130 124,130 123,130 122,130 121,130 120,130 120,131 120,132 120,133 
		120,134 120,135 120,136 120,137 120,138 120,139 120,140 120,141 120,142 120,143 120,144 120,145 120,146 120,147 120,148 
		120,149 120,150 121,150 122,150 123,150 124,150 125,150 126,150 127,150 128,150 129,150 130,150 131,150 132,150 133,150 
		134,150 135,150 136,150 137,150 138,150 139,150 140,150 140,149 	"/>
	<polygon class="st0" points="138,150 137,150 136,150 135,150 134,150 133,150 132,150 131,150 130,150 129,150 128,150 127,150 
		126,150 125,150 124,150 123,150 122,150 121,150 120,150 119,150 118,150 117,150 116,150 115,150 114,150 113,150 112,150 
		111,150 110,150 109,150 108,150 107,150 106,150 105,150 104,150 103,150 102,150 101,150 100,150 99,150 98,150 97,150 96,150 
		95,150 94,150 93,150 92,150 91,150 90,150 89,150 88,150 87,150 86,150 85,150 84,150 83,150 82,150 81,150 80,150 79,150 78,150 
		77,150 76,150 75,150 74,150 73,150 72,150 71,150 70,150 70,149 70,148 70,147 70,146 70,145 70,144 70,143 70,142 70,141 70,140 
		70,139 70,138 70,137 70,136 70,135 70,134 70,133 70,132 70,131 70,130 69,130 68,130 67,130 66,130 65,130 64,130 63,130 62,130 
		61,130 60,130 60,131 60,132 60,133 60,134 60,135 60,136 60,137 60,138 60,139 60,140 60,141 60,142 60,143 60,144 60,145 60,146 
		60,147 60,148 60,149 60,150 59,150 58,150 57,150 56,150 55,150 54,150 53,150 52,150 51,150 50,150 50,149 50,148 50,147 50,146 
		50,145 50,144 50,143 50,142 50,141 50,140 50,139 50,138 50,137 50,136 50,135 50,134 50,133 50,132 50,131 50,130 50,129 50,128 
		50,127 50,126 50,125 50,124 50,123 50,122 50,121 50,120 49,120 48,120 47,120 46,120 45,120 44,120 43,120 42,120 41,120 40,120 
		40,121 40,122 40,123 40,124 40,125 40,126 40,127 40,128 40,129 40,130 40,131 40,132 40,133 40,134 40,135 40,136 40,137 40,138 
		40,139 40,140 40,141 40,142 40,143 40,144 40,145 40,146 40,147 40,148 40,149 40,150 39,150 38,150 37,150 36,150 35,150 34,150 
		33,150 32,150 31,150 30,150 30,149 30,148 30,147 30,146 30,145 30,144 30,143 30,142 30,141 30,140 30,139 30,138 30,137 30,136 
		30,135 30,134 30,133 30,132 30,131 30,130 30,129 30,128 30,127 30,126 30,125 30,124 30,123 30,122 30,121 30,120 30,119 30,118 
		30,117 30,116 30,115 30,114 30,113 30,112 30,111 30,110 30,109 30,108 30,107 30,106 30,105 30,104 30,103 30,102 30,101 30,100 
		29,100 28,100 27,100 26,100 25,100 24,100 23,100 22,100 21,100 20,100 20,101 20,102 20,103 20,104 20,105 20,106 20,107 20,108 
		20,109 20,110 20,111 20,112 20,113 20,114 20,115 20,116 20,117 20,118 20,119 20,120 20,121 20,122 20,123 20,124 20,125 20,126 
		20,127 20,128 20,129 20,130 20,131 20,132 20,133 20,134 20,135 20,136 20,137 20,138 20,139 20,140 20,141 20,142 20,143 20,144 
		20,145 20,146 20,147 20,148 20,149 20,150 20,151 20,152 20,153 20,154 20,155 20,156 20,157 20,158 20,159 20,160 21,160 22,160 
		23,160 24,160 25,160 26,160 27,160 28,160 29,160 30,160 31,160 32,160 33,160 34,160 35,160 36,160 37,160 38,160 39,160 40,160 
		41,160 42,160 43,160 44,160 45,160 46,160 47,160 48,160 49,160 50,160 51,160 52,160 53,160 54,160 55,160 56,160 57,160 58,160 
		59,160 60,160 61,160 62,160 63,160 64,160 65,160 66,160 67,160 68,160 69,160 70,160 71,160 72,160 73,160 74,160 75,160 76,160 
		77,160 78,160 79,160 80,160 81,160 82,160 83,160 84,160 85,160 86,160 87,160 88,160 89,160 90,160 91,160 92,160 93,160 94,160 
		95,160 96,160 97,160 98,160 99,160 100,160 101,160 102,160 103,160 104,160 105,160 106,160 107,160 108,160 109,160 110,160 
		111,160 112,160 113,160 114,160 115,160 116,160 117,160 118,160 119,160 120,160 121,160 122,160 123,160 124,160 125,160 
		126,160 127,160 128,160 129,160 130,160 131,160 132,160 133,160 134,160 135,160 136,160 137,160 138,160 139,160 140,160 
		140,159 140,158 140,157 140,156 140,155 140,154 140,153 140,152 140,151 140,150 139,150 	"/>
</g>
</svg>
