<?xml version="1.0" encoding="utf-8"?>
<!-- Generator: Adobe Illustrator 25.3.1, SVG Export Plug-In . SVG Version: 6.00 Build 0)  -->
<svg version="1.1" id="图层_1" shape-rendering="crispEdges"
	 xmlns="http://www.w3.org/2000/svg" xmlns:xlink="http://www.w3.org/1999/xlink" x="0px" y="0px" viewBox="0 0 600 30"
	 style="enable-background:new 0 0 600 30;" xml:space="preserve">
<style type="text/css">
	.st0{fill:#CBDBFC;}
	.st1{fill:#EEC39A;}
	.st2{fill:#282A34;}
	.st3{opacity:1.176500e-02;fill:#CBDBFC;enable-background:new    ;}
	.st4{opacity:1.568600e-02;fill:#CBDBFC;enable-background:new    ;}
	.st5{opacity:2.352900e-02;fill:#CBDBFC;enable-background:new    ;}
	.st6{opacity:2.745100e-02;fill:#CBDBFC;enable-background:new    ;}
	.st7{opacity:6.666700e-02;fill:#CBDBFC;enable-background:new    ;}
	.st8{opacity:7.843100e-02;fill:#CBDBFC;enable-background:new    ;}
	.st9{opacity:0.1137;fill:#CBDBFC;enable-background:new    ;}
	.st10{opacity:0.1686;fill:#CBDBFC;enable-background:new    ;}
	.st11{opacity:0.1882;fill:#CBDBFC;enable-background:new    ;}
	.st12{opacity:0.2196;fill:#CBDBFC;enable-background:new    ;}
	.st13{opacity:0.2471;fill:#CBDBFC;enable-background:new    ;}
	.st14{opacity:0.302;fill:#CBDBFC;enable-background:new    ;}
	.st15{opacity:0.3882;fill:#CBDBFC;enable-background:new    ;}
	.st16{opacity:0.4471;fill:#CBDBFC;enable-background:new    ;}
	.st17{opacity:0.4824;fill:#CBDBFC;enable-background:new    ;}
	.st18{opacity:0.5098;fill:#CBDBFC;enable-background:new    ;}
	.st19{opacity:0.5216;fill:#CBDBFC;enable-background:new    ;}
	.st20{opacity:0.5333;fill:#CBDBFC;enable-background:new    ;}
	.st21{opacity:0.5569;fill:#CBDBFC;enable-background:new    ;}
	.st22{opacity:0.5882;fill:#CBDBFC;enable-background:new    ;}
	.st23{opacity:0.6078;fill:#CBDBFC;enable-background:new    ;}
	.st24{opacity:0.6471;fill:#CBDBFC;enable-background:new    ;}
	.st25{opacity:0.6588;fill:#CBDBFC;enable-background:new    ;}
	.st26{opacity:0.6627;fill:#CBDBFC;enable-background:new    ;}
	.st27{opacity:0.6745;fill:#CBDBFC;enable-background:new    ;}
	.st28{opacity:0.7294;fill:#CBDBFC;enable-background:new    ;}
	.st29{opacity:0.749;fill:#CBDBFC;enable-background:new    ;}
	.st30{opacity:0.8392;fill:#CBDBFC;enable-background:new    ;}
	.st31{opacity:0.8471;fill:#CBDBFC;enable-background:new    ;}
	.st32{opacity:0.851;fill:#CBDBFC;enable-background:new    ;}
	.st33{opacity:7.451000e-02;fill:#CBDBFC;enable-background:new    ;}
	.st34{opacity:0.1176;fill:#CBDBFC;enable-background:new    ;}
	.st35{opacity:4.313700e-02;fill:#CBDBFC;enable-background:new    ;}
	.st36{opacity:0.102;fill:#CBDBFC;enable-background:new    ;}
	.st37{opacity:8.235300e-02;fill:#CBDBFC;enable-background:new    ;}
	.st38{opacity:0.1373;fill:#CBDBFC;enable-background:new    ;}
	.st39{opacity:0.1098;fill:#CBDBFC;enable-background:new    ;}
	.st40{opacity:0.1529;fill:#CBDBFC;enable-background:new    ;}
	.st41{opacity:0.1804;fill:#CBDBFC;enable-background:new    ;}
	.st42{opacity:0.4039;fill:#CBDBFC;enable-background:new    ;}
	.st43{opacity:0.2706;fill:#CBDBFC;enable-background:new    ;}
	.st44{opacity:0.3451;fill:#CBDBFC;enable-background:new    ;}
	.st45{opacity:0.3216;fill:#CBDBFC;enable-background:new    ;}
	.st46{opacity:0.4;fill:#CBDBFC;enable-background:new    ;}
	.st47{opacity:0.451;fill:#CBDBFC;enable-background:new    ;}
	.st48{opacity:0.502;fill:#CBDBFC;enable-background:new    ;}
	.st49{opacity:0.5725;fill:#CBDBFC;enable-background:new    ;}
	.st50{opacity:0.651;fill:#CBDBFC;enable-background:new    ;}
	.st51{opacity:0.7255;fill:#CBDBFC;enable-background:new    ;}
	.st52{opacity:0.7882;fill:#CBDBFC;enable-background:new    ;}
	.st53{opacity:0.8157;fill:#CBDBFC;enable-background:new    ;}
	.st54{opacity:0.8314;fill:#CBDBFC;enable-background:new    ;}
	.st55{opacity:0.8549;fill:#CBDBFC;enable-background:new    ;}
	.st56{opacity:0.8745;fill:#CBDBFC;enable-background:new    ;}
	.st57{opacity:0.8941;fill:#CBDBFC;enable-background:new    ;}
	.st58{opacity:0.9098;fill:#CBDBFC;enable-background:new    ;}
	.st59{opacity:0.9216;fill:#CBDBFC;enable-background:new    ;}
	.st60{opacity:0.9373;fill:#CBDBFC;enable-background:new    ;}
	.st61{opacity:0.9608;fill:#CBDBFC;enable-background:new    ;}
	.st62{opacity:0.9804;fill:#CBDBFC;enable-background:new    ;}
	.st63{opacity:0.9961;fill:#CBDBFC;enable-background:new    ;}
	.st64{opacity:0.9922;fill:#CBDBFC;enable-background:new    ;}
	.st65{opacity:0.9843;fill:#CBDBFC;enable-background:new    ;}
	.st66{fill:#FFFFFF;}
	.st67{opacity:0.251;fill:#CBDBFC;enable-background:new    ;}
	.st68{opacity:0.2118;fill:#CBDBFC;enable-background:new    ;}
	.st69{opacity:0.1843;fill:#CBDBFC;enable-background:new    ;}
	.st70{opacity:0.2078;fill:#CBDBFC;enable-background:new    ;}
	.st71{opacity:0.2275;fill:#CBDBFC;enable-background:new    ;}
	.st72{opacity:0.2745;fill:#CBDBFC;enable-background:new    ;}
	.st73{opacity:0.2588;fill:#CBDBFC;enable-background:new    ;}
	.st74{opacity:0.4118;fill:#CBDBFC;enable-background:new    ;}
	.st75{opacity:0.4627;fill:#CBDBFC;enable-background:new    ;}
	.st76{opacity:0.3608;fill:#CBDBFC;enable-background:new    ;}
	.st77{opacity:0.4275;fill:#CBDBFC;enable-background:new    ;}
	.st78{opacity:0.5412;fill:#CBDBFC;enable-background:new    ;}
	.st79{opacity:0.6118;fill:#CBDBFC;enable-background:new    ;}
	.st80{opacity:0.6667;fill:#CBDBFC;enable-background:new    ;}
	.st81{opacity:0.7176;fill:#CBDBFC;enable-background:new    ;}
	.st82{opacity:0.7922;fill:#CBDBFC;enable-background:new    ;}
	.st83{opacity:0.8431;fill:#CBDBFC;enable-background:new    ;}
	.st84{opacity:0.8627;fill:#CBDBFC;enable-background:new    ;}
	.st85{opacity:0.8706;fill:#CBDBFC;enable-background:new    ;}
	.st86{opacity:0.8784;fill:#CBDBFC;enable-background:new    ;}
	.st87{opacity:0.898;fill:#CBDBFC;enable-background:new    ;}
	.st88{opacity:0.902;fill:#CBDBFC;enable-background:new    ;}
	.st89{opacity:0.9059;fill:#CBDBFC;enable-background:new    ;}
	.st90{opacity:0.9137;fill:#CBDBFC;enable-background:new    ;}
	.st91{opacity:0.9647;fill:#CBDBFC;enable-background:new    ;}
	.st92{opacity:0.9765;fill:#CBDBFC;enable-background:new    ;}
	.st93{opacity:0.2235;fill:#CBDBFC;enable-background:new    ;}
	.st94{opacity:0.2314;fill:#CBDBFC;enable-background:new    ;}
	.st95{opacity:0.2039;fill:#CBDBFC;enable-background:new    ;}
	.st96{opacity:0.1961;fill:#CBDBFC;enable-background:new    ;}
	.st97{opacity:0.3804;fill:#CBDBFC;enable-background:new    ;}
	.st98{opacity:0.2431;fill:#CBDBFC;enable-background:new    ;}
	.st99{opacity:0.3333;fill:#CBDBFC;enable-background:new    ;}
	.st100{opacity:0.3725;fill:#CBDBFC;enable-background:new    ;}
	.st101{opacity:0.4431;fill:#CBDBFC;enable-background:new    ;}
	.st102{opacity:0.5647;fill:#CBDBFC;enable-background:new    ;}
	.st103{opacity:0.6196;fill:#CBDBFC;enable-background:new    ;}
	.st104{opacity:0.6;fill:#CBDBFC;enable-background:new    ;}
	.st105{opacity:0.5961;fill:#CBDBFC;enable-background:new    ;}
	.st106{opacity:0.5686;fill:#CBDBFC;enable-background:new    ;}
	.st107{opacity:0.5922;fill:#CBDBFC;enable-background:new    ;}
	.st108{opacity:0.6039;fill:#CBDBFC;enable-background:new    ;}
	.st109{opacity:0.7412;fill:#CBDBFC;enable-background:new    ;}
	.st110{opacity:0.7451;fill:#CBDBFC;enable-background:new    ;}
	.st111{opacity:0.7529;fill:#CBDBFC;enable-background:new    ;}
</style>
<g>
	<rect x="592" y="11" class="st0" width="1" height="1"/>
	<polygon class="st1" points="595,11 595,12 595,13 596,13 596,12 596,11 	"/>
	<rect x="596" y="11" class="st0" width="1" height="1"/>
	<polygon class="st2" points="585,15 586,15 586,14 585,14 584,14 584,15 	"/>
	<polygon class="st2" points="591,16 592,16 593,16 593,15 593,14 592,14 591,14 591,15 	"/>
	<path d="M598,15v-1h-1h-1h-1h-1v-1h1v-1v-1h1h1v-1h-1h-1h-1v1h-1v1h-1v1h-1h-1h-1h-1v1h-1h-1v1h-1h-1v-1h-1v1h-1v1h1v1h1v-1h1h1v1
		v1v1h-1h-1v1h1h1h1h1h1h1h1h1h1h1h1h1h1h1v-1h-1h-1v-1v-1v-1h1h1v1v1v1h1v-1v-1v-1v-1H598z M592,14h1v1v1h-1h-1v-1v-1H592z M595,17
		v1v1h-1h-1h-1h-1h-1h-1v-1h-1h-1v-1v-1h1h1h1v1h-1v1h1h1v-1h1h1h1v-1h1V17z"/>
	<rect x="5" y="16" class="st3" width="1" height="1"/>
	<rect x="6" y="16" class="st4" width="1" height="1"/>
	<rect x="7" y="16" class="st5" width="1" height="1"/>
	<rect x="8" y="16" class="st6" width="1" height="1"/>
	<rect x="9" y="16" class="st7" width="1" height="1"/>
	<rect x="10" y="16" class="st8" width="1" height="1"/>
	<polygon class="st9" points="12,17 13,17 13,16 12,16 11,16 11,17 	"/>
	<rect x="13" y="16" class="st10" width="1" height="1"/>
	<rect x="14" y="16" class="st11" width="1" height="1"/>
	<rect x="15" y="16" class="st12" width="1" height="1"/>
	<rect x="16" y="16" class="st13" width="1" height="1"/>
	<rect x="17" y="16" class="st14" width="1" height="1"/>
	<rect x="18" y="16" class="st15" width="1" height="1"/>
	<rect x="19" y="16" class="st16" width="1" height="1"/>
	<rect x="20" y="16" class="st17" width="1" height="1"/>
	<rect x="21" y="16" class="st18" width="1" height="1"/>
	<rect x="22" y="16" class="st19" width="1" height="1"/>
	<rect x="23" y="16" class="st20" width="1" height="1"/>
	<rect x="24" y="16" class="st21" width="1" height="1"/>
	<rect x="25" y="16" class="st22" width="1" height="1"/>
	<rect x="26" y="16" class="st23" width="1" height="1"/>
	<rect x="27" y="16" class="st24" width="1" height="1"/>
	<rect x="28" y="16" class="st25" width="1" height="1"/>
	<rect x="29" y="16" class="st26" width="1" height="1"/>
	<rect x="30" y="16" class="st27" width="1" height="1"/>
	<rect x="31" y="16" class="st28" width="1" height="1"/>
	<rect x="32" y="16" class="st29" width="1" height="1"/>
	<rect x="33" y="16" class="st30" width="1" height="1"/>
	<rect x="34" y="16" class="st31" width="1" height="1"/>
	<polygon class="st32" points="36,17 37,17 37,16 36,16 35,16 35,17 	"/>
	<polygon class="st32" points="45,17 46,17 46,16 45,16 44,16 44,17 	"/>
	<rect x="46" y="16" class="st0" width="1" height="1"/>
	<polygon class="st32" points="48,17 49,17 49,16 48,16 47,16 47,17 	"/>
	<rect x="585" y="16" class="st2" width="1" height="1"/>
	<rect x="587" y="16" class="st0" width="1" height="1"/>
	<polygon class="st2" points="590,17 590,16 589,16 588,16 588,17 587,17 587,18 588,18 589,18 589,17 	"/>
	<polygon class="st2" points="594,17 593,17 593,18 594,18 594,19 595,19 595,18 595,17 595,16 594,16 	"/>
	<rect x="597" y="16" class="st2" width="1" height="1"/>
	<rect x="1" y="17" class="st33" width="1" height="1"/>
	<rect x="2" y="17" class="st34" width="1" height="1"/>
	<rect x="3" y="17" class="st35" width="1" height="1"/>
	<rect x="4" y="17" class="st36" width="1" height="1"/>
	<rect x="5" y="17" class="st37" width="1" height="1"/>
	<rect x="6" y="17" class="st38" width="1" height="1"/>
	<rect x="7" y="17" class="st39" width="1" height="1"/>
	<rect x="8" y="17" class="st40" width="1" height="1"/>
	<rect x="9" y="17" class="st41" width="1" height="1"/>
	<rect x="10" y="17" class="st42" width="1" height="1"/>
	<rect x="11" y="17" class="st43" width="1" height="1"/>
	<rect x="12" y="17" class="st44" width="1" height="1"/>
	<rect x="13" y="17" class="st45" width="1" height="1"/>
	<rect x="14" y="17" class="st46" width="1" height="1"/>
	<rect x="15" y="17" class="st47" width="1" height="1"/>
	<rect x="16" y="17" class="st48" width="1" height="1"/>
	<rect x="17" y="17" class="st49" width="1" height="1"/>
	<rect x="18" y="17" class="st50" width="1" height="1"/>
	<rect x="19" y="17" class="st51" width="1" height="1"/>
	<rect x="20" y="17" class="st52" width="1" height="1"/>
	<rect x="21" y="17" class="st53" width="1" height="1"/>
	<rect x="22" y="17" class="st54" width="1" height="1"/>
	<rect x="23" y="17" class="st30" width="1" height="1"/>
	<polygon class="st55" points="25,18 26,18 26,17 25,17 24,17 24,18 	"/>
	<rect x="26" y="17" class="st56" width="1" height="1"/>
	<polygon class="st57" points="28,17 27,17 27,18 27,19 28,19 28,18 	"/>
	<polygon class="st58" points="29,18 30,18 30,17 29,17 28,17 28,18 	"/>
	<rect x="30" y="17" class="st59" width="1" height="1"/>
	<rect x="31" y="17" class="st60" width="1" height="1"/>
	<rect x="32" y="17" class="st61" width="1" height="1"/>
	<rect x="33" y="17" class="st62" width="1" height="1"/>
	<rect x="34" y="17" class="st63" width="1" height="1"/>
	<polygon class="st0" points="36,17 35,17 35,18 36,18 37,18 38,18 39,18 40,18 41,18 42,18 43,18 43,17 44,17 44,16 43,16 42,16 
		41,16 40,16 39,16 38,16 37,16 37,17 	"/>
	<rect x="43" y="17" class="st64" width="1" height="1"/>
	<polygon class="st65" points="45,17 44,17 44,18 44,19 45,19 45,18 46,18 46,17 	"/>
	<rect x="46" y="17" class="st64" width="1" height="1"/>
	<polygon class="st66" points="593,18 593,17 592,17 591,17 591,18 592,18 	"/>
	<polygon class="st0" points="598,17 597,17 597,16 596,16 596,17 596,18 596,19 597,19 598,19 598,18 	"/>
	<rect x="1" y="18" class="st67" width="1" height="1"/>
	<rect x="2" y="18" class="st68" width="1" height="1"/>
	<rect x="3" y="18" class="st41" width="1" height="1"/>
	<polygon class="st69" points="5,18 4,18 4,19 4,20 5,20 5,19 	"/>
	<rect x="5" y="18" class="st70" width="1" height="1"/>
	<rect x="6" y="18" class="st71" width="1" height="1"/>
	<rect x="7" y="18" class="st72" width="1" height="1"/>
	<rect x="8" y="18" class="st73" width="1" height="1"/>
	<rect x="9" y="18" class="st74" width="1" height="1"/>
	<rect x="10" y="18" class="st45" width="1" height="1"/>
	<rect x="11" y="18" class="st75" width="1" height="1"/>
	<rect x="12" y="18" class="st76" width="1" height="1"/>
	<rect x="13" y="18" class="st77" width="1" height="1"/>
	<rect x="14" y="18" class="st47" width="1" height="1"/>
	<rect x="15" y="18" class="st78" width="1" height="1"/>
	<rect x="16" y="18" class="st79" width="1" height="1"/>
	<rect x="17" y="18" class="st80" width="1" height="1"/>
	<rect x="18" y="18" class="st81" width="1" height="1"/>
	<rect x="19" y="18" class="st82" width="1" height="1"/>
	<rect x="20" y="18" class="st83" width="1" height="1"/>
	<rect x="21" y="18" class="st84" width="1" height="1"/>
	<rect x="22" y="18" class="st85" width="1" height="1"/>
	<rect x="23" y="18" class="st56" width="1" height="1"/>
	<rect x="24" y="18" class="st32" width="1" height="1"/>
	<rect x="25" y="18" class="st84" width="1" height="1"/>
	<rect x="26" y="18" class="st86" width="1" height="1"/>
	<polygon class="st87" points="29,18 28,18 28,19 29,19 30,19 30,18 	"/>
	<rect x="30" y="18" class="st88" width="1" height="1"/>
	<rect x="31" y="18" class="st89" width="1" height="1"/>
	<rect x="32" y="18" class="st90" width="1" height="1"/>
	<rect x="33" y="18" class="st60" width="1" height="1"/>
	<rect x="34" y="18" class="st91" width="1" height="1"/>
	<polygon class="st92" points="43,18 42,18 41,18 40,18 39,18 38,18 37,18 36,18 35,18 35,19 36,19 37,19 38,19 39,19 40,19 41,19 
		42,19 43,19 44,19 44,18 	"/>
	<rect x="45" y="18" class="st64" width="1" height="1"/>
	<rect x="583" y="18" width="1" height="1"/>
	<rect x="585" y="18" class="st2" width="1" height="1"/>
	<rect x="589" y="18" class="st2" width="1" height="1"/>
	<rect x="590" y="18" class="st66" width="1" height="1"/>
	<polygon class="st0" points="592,18 591,18 591,19 592,19 593,19 593,18 	"/>
	<rect x="593" y="18" class="st66" width="1" height="1"/>
	<rect x="1" y="19" class="st93" width="1" height="1"/>
	<rect x="2" y="19" class="st94" width="1" height="1"/>
	<rect x="3" y="19" class="st12" width="1" height="1"/>
	<rect x="5" y="19" class="st95" width="1" height="1"/>
	<rect x="6" y="19" class="st43" width="1" height="1"/>
	<rect x="7" y="19" class="st96" width="1" height="1"/>
	<rect x="8" y="19" class="st97" width="1" height="1"/>
	<rect x="9" y="19" class="st71" width="1" height="1"/>
	<rect x="10" y="19" class="st46" width="1" height="1"/>
	<rect x="11" y="19" class="st98" width="1" height="1"/>
	<rect x="12" y="19" class="st44" width="1" height="1"/>
	<rect x="13" y="19" class="st43" width="1" height="1"/>
	<rect x="14" y="19" class="st99" width="1" height="1"/>
	<rect x="15" y="19" class="st100" width="1" height="1"/>
	<rect x="16" y="19" class="st101" width="1" height="1"/>
	<rect x="17" y="19" class="st19" width="1" height="1"/>
	<rect x="18" y="19" class="st102" width="1" height="1"/>
	<rect x="19" y="19" class="st103" width="1" height="1"/>
	<rect x="20" y="19" class="st50" width="1" height="1"/>
	<rect x="21" y="19" class="st25" width="1" height="1"/>
	<rect x="22" y="19" class="st26" width="1" height="1"/>
	<rect x="23" y="19" class="st104" width="1" height="1"/>
	<rect x="24" y="19" class="st105" width="1" height="1"/>
	<rect x="25" y="19" class="st106" width="1" height="1"/>
	<rect x="26" y="19" class="st107" width="1" height="1"/>
	<rect x="27" y="19" class="st108" width="1" height="1"/>
	<polygon class="st23" points="31,19 30,19 29,19 28,19 28,20 29,20 30,20 31,20 32,20 32,19 	"/>
	<rect x="32" y="19" class="st103" width="1" height="1"/>
	<rect x="33" y="19" class="st80" width="1" height="1"/>
	<rect x="34" y="19" class="st28" width="1" height="1"/>
	<rect x="35" y="19" class="st109" width="1" height="1"/>
	<polygon class="st110" points="43,19 42,19 41,19 40,19 39,19 38,19 37,19 36,19 36,20 37,20 38,20 39,20 40,20 41,20 42,20 43,20 
		44,20 44,19 	"/>
	<rect x="44" y="19" class="st111" width="1" height="1"/>
	<rect x="45" y="19" class="st30" width="1" height="1"/>
	<polygon class="st32" points="47,19 46,19 46,20 47,20 48,20 48,19 	"/>
	<polygon class="st0" points="583,19 583,18 584,18 584,19 585,19 585,18 586,18 586,17 585,17 585,16 584,16 584,17 583,17 583,16 
		582,16 581,16 580,16 579,16 578,16 577,16 576,16 575,16 574,16 573,16 572,16 571,16 570,16 569,16 568,16 567,16 566,16 565,16 
		564,16 563,16 562,16 561,16 560,16 559,16 558,16 557,16 556,16 555,16 554,16 553,16 552,16 551,16 550,16 549,16 548,16 547,16 
		546,16 545,16 544,16 543,16 542,16 541,16 540,16 539,16 538,16 537,16 536,16 535,16 534,16 533,16 532,16 531,16 530,16 529,16 
		528,16 527,16 526,16 525,16 524,16 523,16 522,16 521,16 520,16 519,16 518,16 517,16 516,16 515,16 514,16 513,16 512,16 511,16 
		510,16 509,16 508,16 507,16 506,16 505,16 504,16 503,16 502,16 501,16 500,16 499,16 498,16 497,16 496,16 495,16 494,16 493,16 
		492,16 491,16 490,16 489,16 488,16 487,16 486,16 485,16 484,16 483,16 482,16 481,16 480,16 479,16 478,16 477,16 476,16 475,16 
		474,16 473,16 472,16 471,16 470,16 469,16 468,16 467,16 466,16 465,16 464,16 463,16 462,16 461,16 460,16 459,16 458,16 457,16 
		456,16 455,16 454,16 453,16 452,16 451,16 450,16 449,16 448,16 447,16 446,16 445,16 444,16 443,16 442,16 441,16 440,16 439,16 
		438,16 437,16 436,16 435,16 434,16 433,16 432,16 431,16 430,16 429,16 428,16 427,16 426,16 425,16 424,16 423,16 422,16 421,16 
		420,16 419,16 418,16 417,16 416,16 415,16 414,16 413,16 412,16 411,16 410,16 409,16 408,16 407,16 406,16 405,16 404,16 403,16 
		402,16 401,16 400,16 399,16 398,16 397,16 396,16 395,16 394,16 393,16 392,16 391,16 390,16 389,16 388,16 387,16 386,16 385,16 
		384,16 383,16 382,16 381,16 380,16 379,16 378,16 377,16 376,16 375,16 374,16 373,16 372,16 371,16 370,16 369,16 368,16 367,16 
		366,16 365,16 364,16 363,16 362,16 361,16 360,16 359,16 358,16 357,16 356,16 355,16 354,16 353,16 352,16 351,16 350,16 349,16 
		348,16 347,16 346,16 345,16 344,16 343,16 342,16 341,16 340,16 339,16 338,16 337,16 336,16 335,16 334,16 333,16 332,16 331,16 
		330,16 329,16 328,16 327,16 326,16 325,16 324,16 323,16 322,16 321,16 320,16 319,16 318,16 317,16 316,16 315,16 314,16 313,16 
		312,16 311,16 310,16 309,16 308,16 307,16 306,16 305,16 304,16 303,16 302,16 301,16 300,16 299,16 298,16 297,16 296,16 295,16 
		294,16 293,16 292,16 291,16 290,16 289,16 288,16 287,16 286,16 285,16 284,16 283,16 282,16 281,16 280,16 279,16 278,16 277,16 
		276,16 275,16 274,16 273,16 272,16 271,16 270,16 269,16 268,16 267,16 266,16 265,16 264,16 263,16 262,16 261,16 260,16 259,16 
		258,16 257,16 256,16 255,16 254,16 253,16 252,16 251,16 250,16 249,16 248,16 247,16 246,16 245,16 244,16 243,16 242,16 241,16 
		240,16 239,16 238,16 237,16 236,16 235,16 234,16 233,16 232,16 231,16 230,16 229,16 228,16 227,16 226,16 225,16 224,16 223,16 
		222,16 221,16 220,16 219,16 218,16 217,16 216,16 215,16 214,16 213,16 212,16 211,16 210,16 209,16 208,16 207,16 206,16 205,16 
		204,16 203,16 202,16 201,16 200,16 199,16 198,16 197,16 196,16 195,16 194,16 193,16 192,16 191,16 190,16 189,16 188,16 187,16 
		186,16 185,16 184,16 183,16 182,16 181,16 180,16 179,16 178,16 177,16 176,16 175,16 174,16 173,16 172,16 171,16 170,16 169,16 
		168,16 167,16 166,16 165,16 164,16 163,16 162,16 161,16 160,16 159,16 158,16 157,16 156,16 155,16 154,16 153,16 152,16 151,16 
		150,16 149,16 148,16 147,16 146,16 145,16 144,16 143,16 142,16 141,16 140,16 139,16 138,16 137,16 136,16 135,16 134,16 133,16 
		132,16 131,16 130,16 129,16 128,16 127,16 126,16 125,16 124,16 123,16 122,16 121,16 120,16 119,16 118,16 117,16 116,16 115,16 
		114,16 113,16 112,16 111,16 110,16 109,16 108,16 107,16 106,16 105,16 104,16 103,16 102,16 101,16 100,16 99,16 98,16 97,16 
		96,16 95,16 94,16 93,16 92,16 91,16 90,16 89,16 88,16 87,16 86,16 85,16 84,16 83,16 82,16 81,16 80,16 79,16 78,16 77,16 76,16 
		75,16 74,16 73,16 72,16 71,16 70,16 69,16 68,16 67,16 66,16 65,16 64,16 63,16 62,16 61,16 60,16 59,16 58,16 57,16 56,16 55,16 
		54,16 53,16 52,16 51,16 50,16 49,16 49,17 48,17 47,17 47,18 46,18 46,19 47,19 48,19 48,20 49,20 50,20 51,20 52,20 53,20 54,20 
		55,20 56,20 57,20 58,20 59,20 60,20 61,20 62,20 63,20 64,20 65,20 66,20 67,20 68,20 69,20 70,20 71,20 72,20 73,20 74,20 75,20 
		76,20 77,20 78,20 79,20 80,20 81,20 82,20 83,20 84,20 85,20 86,20 87,20 88,20 89,20 90,20 91,20 92,20 93,20 94,20 95,20 96,20 
		97,20 98,20 99,20 100,20 101,20 102,20 103,20 104,20 105,20 106,20 107,20 108,20 109,20 110,20 111,20 112,20 113,20 114,20 
		115,20 116,20 117,20 118,20 119,20 120,20 121,20 122,20 123,20 124,20 125,20 126,20 127,20 128,20 129,20 130,20 131,20 132,20 
		133,20 134,20 135,20 136,20 137,20 138,20 139,20 140,20 141,20 142,20 143,20 144,20 145,20 146,20 147,20 148,20 149,20 150,20 
		151,20 152,20 153,20 154,20 155,20 156,20 157,20 158,20 159,20 160,20 161,20 162,20 163,20 164,20 165,20 166,20 167,20 168,20 
		169,20 170,20 171,20 172,20 173,20 174,20 175,20 176,20 177,20 178,20 179,20 180,20 181,20 182,20 183,20 184,20 185,20 186,20 
		187,20 188,20 189,20 190,20 191,20 192,20 193,20 194,20 195,20 196,20 197,20 198,20 199,20 200,20 201,20 202,20 203,20 204,20 
		205,20 206,20 207,20 208,20 209,20 210,20 211,20 212,20 213,20 214,20 215,20 216,20 217,20 218,20 219,20 220,20 221,20 222,20 
		223,20 224,20 225,20 226,20 227,20 228,20 229,20 230,20 231,20 232,20 233,20 234,20 235,20 236,20 237,20 238,20 239,20 240,20 
		241,20 242,20 243,20 244,20 245,20 246,20 247,20 248,20 249,20 250,20 251,20 252,20 253,20 254,20 255,20 256,20 257,20 258,20 
		259,20 260,20 261,20 262,20 263,20 264,20 265,20 266,20 267,20 268,20 269,20 270,20 271,20 272,20 273,20 274,20 275,20 276,20 
		277,20 278,20 279,20 280,20 281,20 282,20 283,20 284,20 285,20 286,20 287,20 288,20 289,20 290,20 291,20 292,20 293,20 294,20 
		295,20 296,20 297,20 298,20 299,20 300,20 301,20 302,20 303,20 304,20 305,20 306,20 307,20 308,20 309,20 310,20 311,20 312,20 
		313,20 314,20 315,20 316,20 317,20 318,20 319,20 320,20 321,20 322,20 323,20 324,20 325,20 326,20 327,20 328,20 329,20 330,20 
		331,20 332,20 333,20 334,20 335,20 336,20 337,20 338,20 339,20 340,20 341,20 342,20 343,20 344,20 345,20 346,20 347,20 348,20 
		349,20 350,20 351,20 352,20 353,20 354,20 355,20 356,20 357,20 358,20 359,20 360,20 361,20 362,20 363,20 364,20 365,20 366,20 
		367,20 368,20 369,20 370,20 371,20 372,20 373,20 374,20 375,20 376,20 377,20 378,20 379,20 380,20 381,20 382,20 383,20 384,20 
		385,20 386,20 387,20 388,20 389,20 390,20 391,20 392,20 393,20 394,20 395,20 396,20 397,20 398,20 399,20 400,20 401,20 402,20 
		403,20 404,20 405,20 406,20 407,20 408,20 409,20 410,20 411,20 412,20 413,20 414,20 415,20 416,20 417,20 418,20 419,20 420,20 
		421,20 422,20 423,20 424,20 425,20 426,20 427,20 428,20 429,20 430,20 431,20 432,20 433,20 434,20 435,20 436,20 437,20 438,20 
		439,20 440,20 441,20 442,20 443,20 444,20 445,20 446,20 447,20 448,20 449,20 450,20 451,20 452,20 453,20 454,20 455,20 456,20 
		457,20 458,20 459,20 460,20 461,20 462,20 463,20 464,20 465,20 466,20 467,20 468,20 469,20 470,20 471,20 472,20 473,20 474,20 
		475,20 476,20 477,20 478,20 479,20 480,20 481,20 482,20 483,20 484,20 485,20 486,20 487,20 488,20 489,20 490,20 491,20 492,20 
		493,20 494,20 495,20 496,20 497,20 498,20 499,20 500,20 501,20 502,20 503,20 504,20 505,20 506,20 507,20 508,20 509,20 510,20 
		511,20 512,20 513,20 514,20 515,20 516,20 517,20 518,20 519,20 520,20 521,20 522,20 523,20 524,20 525,20 526,20 527,20 528,20 
		529,20 530,20 531,20 532,20 533,20 534,20 535,20 536,20 537,20 538,20 539,20 540,20 541,20 542,20 543,20 544,20 545,20 546,20 
		547,20 548,20 549,20 550,20 551,20 552,20 553,20 554,20 555,20 556,20 557,20 558,20 559,20 560,20 561,20 562,20 563,20 564,20 
		565,20 566,20 567,20 568,20 569,20 570,20 571,20 572,20 573,20 574,20 575,20 576,20 577,20 578,20 579,20 580,20 581,20 582,20 
		583,20 584,20 584,19 	"/>
</g>
</svg>
